<svg width="15" height="14" viewBox="0 0 15 14" fill="none" xmlns="http://www.w3.org/2000/svg">
<path fill-rule="evenodd" clip-rule="evenodd" d="M8.59994 0.767275C7.93322 0.204528 6.95788 0.204529 6.29115 0.767275L5.68395 1.27978C5.40057 1.51896 5.0499 1.66422 4.68039 1.69547L3.88864 1.76243C3.01927 1.83595 2.3296 2.52562 2.25608 3.39499L2.18913 4.18674C2.15788 4.55625 2.01261 4.90692 1.77343 5.19031L1.26093 5.7975C0.69818 6.46422 0.698181 7.43956 1.26093 8.10629L1.77343 8.71348C2.01261 8.99686 2.15788 9.34756 2.18913 9.71705L2.25608 10.5088C2.3296 11.3782 3.01927 12.0679 3.88864 12.1414L4.68039 12.2083C5.0499 12.2396 5.40057 12.3848 5.68396 12.624L6.29115 13.1365C6.95788 13.6992 7.93322 13.6992 8.59994 13.1365L9.20713 12.624C9.49051 12.3848 9.84121 12.2396 10.2107 12.2083L11.0025 12.1414C11.8719 12.0679 12.5615 11.3782 12.635 10.5088L12.7019 9.71705C12.7333 9.34756 12.8785 8.99686 13.1177 8.71348L13.6302 8.10629C14.1929 7.43956 14.1929 6.46422 13.6302 5.7975L13.1177 5.1903C12.8785 4.90692 12.7333 4.55625 12.7019 4.18674L12.635 3.39499C12.5615 2.52562 11.8719 1.83595 11.0025 1.76243L10.2107 1.69547C9.84121 1.66422 9.49051 1.51896 9.20713 1.27978L8.59994 0.767275ZM10.7 5.73168C11.0146 5.41716 11.0146 4.90722 10.7 4.5927C10.3856 4.27817 9.87557 4.27817 9.56103 4.5927L6.55106 7.60269L5.33081 6.38244C5.01629 6.06791 4.50635 6.06791 4.19182 6.38244C3.87729 6.69696 3.87729 7.20691 4.19182 7.52143L5.98157 9.31114C6.29609 9.62569 6.80603 9.62569 7.12056 9.31114L10.7 5.73168Z" fill="#252430"/>
</svg>
